<svg xmlns="http://www.w3.org/2000/svg" width="512" height="512" viewBox="0 0 31633.66 31596.61"  fill-rule="evenodd" image-rendering="optimizeQuality" shape-rendering="geometricPrecision" xmlns:v="https://vecta.io/nano"><path d="M0-18.49h31633.66v31633.66H0z" fill="#39f"/><path d="M16834.47 19618.29l4745.56 4755.79s-71.59 51.14-153.41 102.28c-1114.8 726.15-2383.01 1237.53-3681.9 1493.22-61.37 10.23-143.19 30.68-184.1 30.68-818.2 163.64-2014.82 194.32-2976.2 92.05-337.51-30.68-644.33-81.82-1125.03-194.32-102.28-20.46-409.1-92.05-623.88-153.41-777.29-225.01-1646.63-603.42-2372.78-1032.98-173.87-112.5-613.65-398.87-613.65-409.1s5809.22-5839.9 5829.68-5839.9c10.23 0 531.83 521.6 1155.71 1155.71zm235.23-2106.86l5778.54 5850.13c-92.05 102.27-787.52 685.24-869.34 736.38-20.46 10.23-112.5-71.59-685.24-654.56l-2976.2-2976.2-2311.42-2331.87c0-20.46 807.97-838.66 838.65-848.88 0 0 112.5 102.27 225.01 225.01zm-2137.55 173.87c235.23 235.23 429.56 439.78 429.56 450.01s-531.83 542.06-1186.39 1196.62l-4704.65 4704.65c-10.23 0-388.65-306.82-521.6-429.55-245.46-214.78-409.1-368.19-409.1-378.42s951.16-971.61 2127.32-2137.55l3825.08-3835.31 439.78 429.55zm6064.91 1411.4l2986.43 2996.66c10.23 20.46-245.46 347.73-398.87 511.38-184.1 214.78-357.96 398.87-378.42 409.1s-173.87-143.18-552.29-521.6l-5502.39-5522.85c0-10.23 838.65-859.11 859.11-859.11l2986.43 2986.43zm-4909.2-2567.1l429.56 439.78c0 20.45-818.2 848.88-838.65 848.88-10.23 0-214.78-194.32-450.01-429.56-306.82-317.05-429.56-439.78-419.33-450.01 20.46-40.91 818.2-838.66 838.65-838.66 10.23 0 204.55 194.32 439.78 429.55zm-2331.87-20.45l409.1 429.55c0 10.23-521.6 542.06-1165.94 1186.39l-2965.97 2976.2-1820.49 1789.81c-51.14-20.46-767.06-859.11-767.06-900.02l5768.31-5798.99c51.14-51.14 102.28-92.05 112.5-92.05s194.32 184.1 429.56 409.1zm1155.71-1155.71c235.23 225.01 419.33 419.33 419.33 429.55 0 20.46-828.43 838.65-848.88 838.65-10.23 0-838.65-828.43-838.65-838.65 0-20.46 828.43-848.88 838.65-848.88s204.55 184.1 429.56 419.33zm2352.32 0l429.56 439.78c0 20.46-838.65 859.11-859.11 859.11s-869.34-848.88-869.34-869.34 838.65-859.11 859.11-859.11c10.23 0 204.55 194.32 439.78 429.55zm-1176.16-1176.16c235.23 225.01 419.33 419.33 419.33 429.56 0 20.45-838.65 859.11-859.11 859.11s-848.88-838.66-848.88-848.88c0-20.46 848.88-859.11 859.11-859.11s204.55 184.09 429.56 419.33zm-7343.35-2679.6l4264.87 4275.1c0 10.23-961.38 981.84-2147.77 2158l-3671.67 3681.9c-20.46 0-306.83-450.01-470.47-756.83-112.5-194.32-368.19-705.7-450.01-900.02-40.91-92.05-81.82-184.1-102.27-214.78-40.91-102.27-184.1-501.15-255.69-715.92-531.83-1615.95-654.56-3375.08-357.96-5052.39 81.82-470.46 265.92-1165.93 398.87-1534.12 20.46-40.91 40.91-122.73 61.36-163.64 81.82-255.69 286.37-736.38 460.24-1094.34 245.46-501.15 695.47-1237.53 736.38-1217.07l1534.13 1534.13zm15678.76-1421.62c1125.03 1738.67 1697.76 3651.22 1697.76 5717.17 0 1922.77-480.69 3681.9-1472.76 5348.98-143.19 235.23-378.42 582.97-388.65 582.97s-204.55-194.32-439.78-429.55l-5481.94-5492.17 5727.4-5768.31c92.05-92.05 173.87-173.87 184.1-173.87 20.46 0 92.05 92.05 173.87 214.78zM8611.56 9032.83c194.32 204.55 1534.13 1534.13 2955.75 2965.98l2597.79 2618.24c0 20.46-818.2 848.88-828.43 848.88s-398.87-388.65-869.34-869.34l-2935.29-2925.07-2065.96-2096.64c0-40.91 726.15-900.02 767.06-900.02 10.23 0 184.1 163.64 378.42 357.96zm14666.24-388.64l705.7 838.65-5952.4 5983.09-869.34-838.66 6013.77-6075.14c10.23 0 51.14 40.91 102.28 92.05zM9879.77 7948.72l5461.49 5492.17c0 20.45-828.43 859.11-848.88 859.11L8550.19 8347.59c0-40.91 879.56-797.74 920.47-797.74 10.23 0 194.32 184.1 409.1 398.87zm12191.18-388.64c194.32 143.18 450.01 357.96 582.97 480.69 71.59 61.37 143.18 132.96 163.64 143.18 20.46 20.46 40.91 40.91 40.91 51.14 0 20.46-6013.77 6034.23-6034.23 6034.23-10.23 0-848.88-818.2-848.88-828.43l5328.53-5348.98c337.51-347.73 623.88-623.88 634.1-623.88s71.59 40.91 132.96 92.05zm-5533.08-2106.87c1513.67 112.5 2955.75 552.29 4285.32 1288.67 337.51 184.09 746.61 439.78 746.61 470.46l-5901.27 5901.27c-20.46 0-5819.45-5809.22-5819.45-5829.67 0-10.23 81.82-71.59 194.32-143.18 1002.29-654.56 2055.73-1114.8 3180.75-1401.17 634.1-163.64 1206.85-245.46 1810.27-286.37l306.82-20.45c143.18-10.23 992.07 0 1196.62 20.45zm-726.15-2065.95c6862.65 0 12416.19 5553.53 12416.19 12416.18s-5553.53 12416.18-12416.19 12416.18S3395.53 22666.09 3395.53 15803.44 8949.06 3387.25 15811.72 3387.25zm0 756.83c6443.33 0 11659.35 5216.03 11659.35 11659.35s-5216.02 11659.35-11659.35 11659.35S4152.37 22246.76 4152.37 15803.44 9368.39 4144.09 15811.72 4144.09zm0 623.88c6095.59 0 11025.25 4939.88 11025.25 11035.47s-4929.65 11025.24-11025.25 11025.24S4786.47 21899.03 4786.47 15803.44 9716.13 4767.96 15811.72 4767.96z" fill="#fff"/></svg>